<svg width="30" height="30" fill="none" xmlns="http://www.w3.org/2000/svg">
  <rect x=".5" y=".5" width="29" height="29" rx="6.5" fill="#fff" stroke="#F8F8F8"/>
  <path d="M19.936 10.534h0a3.637 3.637 0 00-1.154-.757h-.001a3.674 3.674 0 00-1.409-.277h0a3.7 3.7 0 00-1.917.533h0a3.575 3.575 0 00-.39.273l-.314.252-.314-.252c-.123-.1-.253-.19-.39-.273h0A3.698 3.698 0 0012.13 9.5c-.49 0-.963.093-1.41.277h0c-.432.178-.82.432-1.154.757h0a3.527 3.527 0 00-.78 1.124l11.15-1.124zm0 0c.331.321.596.703.779 1.124.19.439.286.902.285 1.38v.001c0 .447-.092.925-.284 1.422v.001a6.577 6.577 0 01-.7 1.31c-.486.717-1.162 1.479-2.016 2.262a23.192 23.192 0 01-2.878 2.23h0l-.37.236h0-.004 0l-.37-.235h0l-.007-.005s0 0 0 0l-.019-.012a9.159 9.159 0 01-.244-.162 23.112 23.112 0 01-2.607-2.053h0m8.435-7.499l-8.435 7.5m0 0c-.855-.783-1.531-1.544-2.016-2.262a6.658 6.658 0 01-.701-1.311 3.957 3.957 0 01-.284-1.422c0-.479.097-.943.287-1.38l2.714 6.375z" stroke="#ECECEC"/>
</svg>
